<svg width="88" height="58" fill="none" xmlns="http://www.w3.org/2000/svg"><path fill-rule="evenodd" clip-rule="evenodd" d="M43.512 11.623a1.89 1.89 0 0 1 1.762-.305 1.887 1.887 0 0 1 1.669.333L60.884 22.74a2.324 2.324 0 0 1 1.609 2.211v23.473a2.323 2.323 0 0 1-2.323 2.323H50.088a2.323 2.323 0 0 1-2.323-2.323V33.778h3.913a2.182 2.182 0 1 0 0-4.364h-3.913V24.95a2.323 2.323 0 0 0-2.323-2.323h-.432a2.323 2.323 0 0 0-2.323 2.323v4.464h-4.421a2.182 2.182 0 0 0 0 4.364h4.42v14.645a2.323 2.323 0 0 1-2.322 2.323H30.282a2.323 2.323 0 0 1-2.323-2.323V24.95c0-1.012.648-1.873 1.551-2.191l14.002-11.136Z" fill="#CC9475"/><path fill-rule="evenodd" clip-rule="evenodd" d="M63.577 32.977a.86.86 0 0 1 .802-.139.858.858 0 0 1 .758.152l6.341 5.043c.425.137.732.536.732 1.006v10.675c0 .584-.473 1.057-1.057 1.057h-4.585a1.056 1.056 0 0 1-1.056-1.057V39.04c0-.584-.474-1.057-1.057-1.057h-.197c-.583 0-1.056.473-1.056 1.057v10.675c0 .584-.473 1.057-1.057 1.057H57.56a1.056 1.056 0 0 1-1.056-1.057V39.04c0-.46.294-.852.705-.997l6.368-5.065Zm3.548 9.03a.95.95 0 0 1 .95-.951h1.419a.95.95 0 0 1 0 1.9h-1.418a.95.95 0 0 1-.951-.95ZM25.738 32.977a.86.86 0 0 1 .802-.139.858.858 0 0 1 .759.152l6.34 5.043c.425.137.732.536.732 1.006v10.675c0 .584-.473 1.057-1.057 1.057H28.73a1.056 1.056 0 0 1-1.056-1.057V39.04c0-.584-.473-1.057-1.057-1.057h-.197c-.583 0-1.056.473-1.056 1.057v10.675c0 .584-.473 1.057-1.056 1.057H19.72a1.056 1.056 0 0 1-1.056-1.057V39.04c0-.46.294-.852.705-.997l6.368-5.065Zm-5.745 9.03a.95.95 0 0 1 .95-.951h1.418a.95.95 0 0 1 0 1.9h-1.418a.95.95 0 0 1-.95-.95Z" fill="#CC9475"/><path d="M22.361 29.807c1.387 0 1.387-2.06 0-2.06s-1.387 2.06 0 2.06ZM22.61 33.42c.829 0 .836-1.236 0-1.236-.83 0-.837 1.235 0 1.235ZM25.928 30.25c.83 0 .837-1.235 0-1.235-.83 0-.836 1.236 0 1.236ZM27.92 20.112c.83 0 .836-1.236 0-1.236-.83 0-.837 1.236 0 1.236ZM36.55 15.042c.83 0 .836-1.236 0-1.236-.83 0-.837 1.236 0 1.236ZM55.8 15.675c.83 0 .837-1.235 0-1.235-.829 0-.836 1.235 0 1.235ZM69.742 30.884c.83 0 .836-1.235 0-1.235-.83 0-.837 1.235 0 1.235ZM76.38 48.628c.83 0 .836-1.236 0-1.236-.83 0-.837 1.236 0 1.236ZM66.423 22.646c.83 0 .836-1.236 0-1.236-.83 0-.837 1.236 0 1.236ZM42.524 8.705c.83 0 .837-1.236 0-1.236-.83 0-.836 1.236 0 1.236ZM16.635 38.489c.83 0 .836-1.236 0-1.236-.83 0-.837 1.236 0 1.236ZM11.324 45.46c.83 0 .836-1.236 0-1.236-.83 0-.836 1.236 0 1.236ZM16.635 48.628c.83 0 .836-1.236 0-1.236-.83 0-.837 1.236 0 1.236ZM61.775 18.844c.83 0 .837-1.236 0-1.236-.83 0-.836 1.236 0 1.236ZM31.278 13.774c1.763 0 1.777-2.625 0-2.625-1.763 0-1.777 2.625 0 2.625ZM54.513 11.362c1.763 0 1.777-2.626 0-2.626-1.764 0-1.778 2.626 0 2.626ZM75.091 37.344c1.763 0 1.778-2.626 0-2.626-1.763 0-1.777 2.626 0 2.626Z" fill="#CC9475"/></svg>