<svg width="88" height="58" fill="none" xmlns="http://www.w3.org/2000/svg"><path d="M34.863 40.731c.956 0 .964-1.3 0-1.3-.956 0-.963 1.3 0 1.3ZM57.044 41.398c.956 0 .963-1.3 0-1.3-.956 0-.964 1.3 0 1.3ZM44.806 8.73c.956 0 .964-1.3 0-1.3-.956 0-.963 1.3 0 1.3ZM18.037 46.065c.956 0 .963-1.3 0-1.3-.956 0-.964 1.3 0 1.3ZM29.51 34.73c.955 0 .963-1.3 0-1.3-.957 0-.965 1.3 0 1.3ZM55.514 13.396c.956 0 .963-1.3 0-1.3-.956 0-.964 1.3 0 1.3ZM63.163 34.73c.956 0 .963-1.3 0-1.3-.956 0-.964 1.3 0 1.3ZM29.51 50.731c.955 0 .963-1.3 0-1.3-.957 0-.965 1.3 0 1.3ZM65.457 44.065c.956 0 .964-1.3 0-1.3-.956 0-.964 1.3 0 1.3ZM26.45 43.398c.956 0 .964-1.3 0-1.3-.956 0-.963 1.3 0 1.3ZM30.274 17.397c.956 0 .964-1.3 0-1.3-.956 0-.963 1.3 0 1.3ZM36.393 45.398c1.446 0 1.458-1.967 0-1.967-1.446 0-1.458 1.967 0 1.967ZM39.056 10.063c1.447 0 1.458-1.967 0-1.967-1.446 0-1.457 1.967 0 1.967ZM63.532 18.73c1.446 0 1.458-1.967 0-1.967-1.446 0-1.458 1.967 0 1.967ZM25.29 23.397c1.446 0 1.457-1.967 0-1.967-1.447 0-1.458 1.967 0 1.967ZM65.826 49.398c1.446 0 1.458-1.967 0-1.967-1.446 0-1.458 1.967 0 1.967Z" fill="#CC9475"/><path d="M69.962 44.556c-.137-.331-.614-.331-.767-.331-.877 0-2.931.437-5.394 1.145a1.845 1.845 0 0 0-.47-.162c-2.362-4.538-3.394-7.031-4.84-11.727 2.078-.866 3.405-2.166 3.942-3.869 1.8-5.685-5.88-13.921-6.21-14.27l-.307-.326-10.298 3.208-10.299-3.208-.305.326c-.327.347-8.015 8.57-6.21 14.27.54 1.703 1.865 3.003 3.945 3.87-1.447 4.691-2.478 7.185-4.84 11.726-.17.035-.328.089-.47.162-2.463-.71-4.517-1.145-5.394-1.145-.157 0-.633 0-.767.33l-.137.323 14.458 4.505.133-.324c.106-.258.354-.86-5.36-2.776a1.427 1.427 0 0 0-.245-.383c1.473-4.82 2.49-7.319 4.783-11.745 2.237.476 4.22.199 5.863-.812 2.743-1.689 4.136-5.131 4.843-8.238.708 3.107 2.1 6.55 4.842 8.238 1.647 1.013 3.629 1.29 5.863.812 2.292 4.428 3.31 6.925 4.784 11.745a1.45 1.45 0 0 0-.246.383c-5.71 1.913-5.465 2.515-5.359 2.776l.133.324 14.458-4.505-.13-.322Zm-23.617-25.28 9.113-2.84c.648.733 2.46 2.871 3.902 5.39-.745.448-2.04.941-5.24-.54-3.322-1.535-6.268.41-7.523 1.465a32.314 32.314 0 0 1-.285-2.696c.017-.319.026-.583.033-.78Zm-1.611 2.767c-.63.921-1.958 1.731-4.682.16-3.263-1.886-6.058-1.587-7.696-1.176a36.084 36.084 0 0 1 3.422-4.592l9.113 2.84c.004.196.013.458.03.774-.032.526-.09 1.21-.187 1.994Z" fill="#CC9475"/><path d="M42.073 15.785c.155.135.356.2.557.2a.853.853 0 0 0 .557-.2.628.628 0 0 0 0-.973l-1.872-1.631a.875.875 0 0 0-1.115 0c-.31.268-.307.702 0 .972l1.873 1.632ZM43.762 14.521c.093.307.411.51.761.51a.922.922 0 0 0 .207-.024c.42-.099.67-.474.557-.84l-.687-2.228c-.113-.366-.546-.582-.964-.485-.42.098-.67.474-.557.84l.683 2.227ZM46.506 15.007a.922.922 0 0 0 .206.023c.347 0 .666-.202.761-.509l.687-2.228c.113-.366-.137-.743-.558-.84-.418-.097-.852.12-.964.486l-.686 2.226c-.114.368.134.744.554.842ZM48.049 15.783c.155.135.356.2.557.2a.853.853 0 0 0 .557-.2l1.872-1.631a.628.628 0 0 0 0-.973.872.872 0 0 0-1.116 0l-1.871 1.632c-.31.27-.31.704 0 .972Z" fill="#CC9475"/></svg>