<svg width="80" height="81" fill="none" xmlns="http://www.w3.org/2000/svg"><path d="M48.031 76.403H34.824V27.211l6.604-12.7 6.603 12.7v49.192ZM41.428 14.51V4.403M39.553 8.428h3.66" stroke="#CC9475" stroke-width="1.5" stroke-miterlimit="10"/><path d="M43.212 50.465h-3.659V34.187c0-2.683.625-5.277 1.696-7.602l.09-.18.089.18c1.16 2.414 1.695 5.008 1.695 7.602v16.278h.09ZM43.212 76.403h-3.659v-4.83c0-2.683.625-5.277 1.696-7.602l.09-.18.089.18c1.16 2.415 1.695 5.008 1.695 7.602v4.83h.09ZM41.428 61.198c-.982 0-1.874-.805-1.874-1.878v-3.13c0-.984.803-1.879 1.873-1.879.982 0 1.874.805 1.874 1.878v3.13c-.089 1.074-.892 1.88-1.873 1.88ZM55.35 62.182V59.41c0-.983-.804-1.878-1.875-1.878-.982 0-1.874.805-1.874 1.878v2.773h3.748Z" stroke="#CC9475" stroke-width="1.5" stroke-miterlimit="10"/><path d="M52.583 76.403h-4.551V48.05h.713A11.4 11.4 0 0 1 60.168 59.5v9.212c0 4.293-3.391 7.692-7.585 7.692ZM27.418 62.182V59.41c0-.983.803-1.878 1.873-1.878.982 0 1.875.805 1.875 1.878v2.773h-3.748Z" stroke="#CC9475" stroke-width="1.5" stroke-miterlimit="10"/><path d="M30.273 76.403h4.551V48.05h-.714A11.4 11.4 0 0 0 22.688 59.5v9.212c-.09 4.293 3.39 7.692 7.585 7.692Z" stroke="#CC9475" stroke-width="1.5" stroke-miterlimit="10"/><path d="M57.67 52.075c.535-.626.892-1.342 1.16-2.147l4.819-15.83M59.365 48.944s2.945-6.976 10.977-5.634c0 0-3.748 6.976-10.977 5.634Z" stroke="#CC9475" stroke-width="1.5" stroke-miterlimit="10" stroke-linecap="round" stroke-linejoin="round"/><path d="M63.381 34.724s2.499-7.156 10.62-6.35c0 0-3.302 7.244-10.62 6.35ZM60.258 43.22s-7.407-1.878-7.229-10.017c.09 0 7.497 2.683 7.229 10.017ZM23.491 72.557c-.535-.626-.982-1.341-1.25-2.057L16.62 54.937M21.616 69.516s-3.301-6.798-11.154-5.009c0 0 4.105 6.798 11.154 5.009Z" stroke="#CC9475" stroke-width="1.5" stroke-miterlimit="10" stroke-linecap="round" stroke-linejoin="round"/><path d="M16.887 55.563S14.031 48.497 6 49.84c0 0 3.748 7.066 10.887 5.724Z" stroke="#CC9475" stroke-width="1.5" stroke-miterlimit="10" stroke-linecap="round" stroke-linejoin="round"/></svg>