<svg width="80" height="61" fill="none" xmlns="http://www.w3.org/2000/svg"><path d="M28.69 22.457c1.96-1.186 3.526-1.186 5.093-.79l2.741-18.09-14.198-2.174-2.448 16.013a6.789 6.789 0 0 1 1.665-.593c4.602-.988 3.133 8.6 7.148 5.634Z" stroke="#CC9475" stroke-width="1.5" stroke-miterlimit="10"/><path d="m33.195 25.324.587-3.657c-1.468-.495-3.133-.396-5.091.79-4.015 2.966-2.546-6.622-7.148-5.634-.49.198-1.078.396-1.665.593l-.881 5.634a7.217 7.217 0 0 0 5.19 8.106l-2.84 18.681c-2.938-.395-5.19-.098-5.288.495-.098.692 2.448 1.779 5.777 2.273 3.33.494 6.071.297 6.17-.395.097-.692-2.057-1.582-4.897-2.076l2.84-18.682c3.525.198 6.658-2.372 7.246-6.128ZM49.156 28.19c1.37-1.779 2.937-2.372 4.504-2.47L50.037 7.827l-14.1 2.867 3.231 15.914c.49-.495.98-.89 1.37-1.186 3.918-2.57 5.876 6.919 8.618 2.767Z" stroke="#CC9475" stroke-width="1.5" stroke-miterlimit="10"/><path d="m54.345 29.376-.685-3.657c-1.567.099-3.134.692-4.505 2.471-2.741 4.152-4.7-5.337-8.617-2.767-.391.296-.88.692-1.37 1.186l1.175 5.634c.685 3.657 4.014 6.03 7.637 5.733l3.721 18.484c-2.84.692-4.896 1.68-4.798 2.372.098.692 2.938.791 6.17.1 3.23-.693 5.776-1.78 5.678-2.57-.097-.693-2.448-.792-5.287-.297L49.743 37.58c3.231-1.088 5.385-4.547 4.602-8.205Z" stroke="#CC9475" stroke-width="1.5" stroke-miterlimit="10"/><path d="M53.66 55.471c.783-.395 1.469-.988 2.056-1.779L67.075 39.46M56.695 53s5.876-5.93 13.513-1.186c-.098 0-6.756 5.535-13.513 1.186Z" stroke="#CC9475" stroke-width="1.5" stroke-miterlimit="10" stroke-linecap="round" stroke-linejoin="round"/><path d="M66.585 40.051S72.068 33.725 80 37.976c0 .099-6.365 6.03-13.415 2.075ZM59.926 47.465s-6.756-4.942-3.133-13.245c0 0 6.463 5.832 3.133 13.245ZM17.332 51.122a5.167 5.167 0 0 1-1.371-1.186l-7.442-9.291M15.374 49.442s-3.82-3.954-8.911-.791c.098.099 4.504 3.756 8.91.79ZM8.813 41.04S5.19 36.888 0 39.755c.098-.099 4.21 3.855 8.813 1.285ZM13.22 45.883s4.405-3.262 2.055-8.698c.098 0-4.21 3.855-2.056 8.698Z" stroke="#CC9475" stroke-width="1.5" stroke-miterlimit="10" stroke-linecap="round" stroke-linejoin="round"/></svg>