<svg width="36" height="36" fill="none" xmlns="http://www.w3.org/2000/svg"><path d="M18 32.948c8.066 0 14.605-6.539 14.605-14.605S26.065 3.738 18 3.738c-8.066 0-14.605 6.54-14.605 14.605 0 2.337.549 4.545 1.524 6.503.26.52.345 1.115.195 1.677l-.87 3.251c-.377 1.411.914 2.702 2.325 2.325l3.251-.87c.562-.15 1.157-.064 1.677.195A14.545 14.545 0 0 0 18 32.948Z" fill="#fff" stroke="#EC837D" stroke-width="2.191"/><path d="m18 14.693-.783.767a1.095 1.095 0 0 0 1.566 0L18 14.693Zm-2.17 7.114c-.849-.723-1.701-1.56-2.334-2.425-.645-.883-.973-1.678-.973-2.34h-2.19c0 1.338.634 2.591 1.394 3.632.773 1.058 1.767 2.021 2.684 2.802l1.42-1.669Zm-3.307-4.764c0-1.618.723-2.47 1.466-2.748.755-.282 1.96-.131 3.228 1.165l1.566-1.533c-1.688-1.724-3.77-2.354-5.562-1.684-1.803.675-2.889 2.508-2.889 4.8h2.191Zm9.066 6.433c.917-.78 1.911-1.744 2.684-2.802.76-1.04 1.395-2.294 1.395-3.631h-2.191c0 .66-.328 1.456-.973 2.339-.632.865-1.485 1.702-2.334 2.425l1.42 1.669Zm4.079-6.433c0-2.292-1.085-4.125-2.89-4.8-1.79-.67-3.872-.04-5.56 1.684l1.565 1.533c1.269-1.296 2.473-1.447 3.229-1.165.743.278 1.465 1.13 1.465 2.748h2.19ZM14.41 23.476c1.139.968 2.045 1.796 3.59 1.796v-2.19c-.606 0-.902-.196-2.17-1.275l-1.42 1.669Zm5.759-1.669c-1.269 1.079-1.565 1.274-2.17 1.274v2.191c1.544 0 2.45-.828 3.59-1.796l-1.42-1.669Z" fill="#EC837D"/><path d="M18 15.789c-.294 0-.576-.119-.783-.33-1.269-1.295-2.473-1.446-3.228-1.164-.744.278-1.466 1.13-1.466 2.748 0 .66.329 1.456.973 2.339.633.865 1.485 1.702 2.335 2.425 1.268 1.079 1.564 1.274 2.17 1.274.604 0 .9-.195 2.169-1.274.85-.723 1.702-1.56 2.334-2.425.645-.883.973-1.678.973-2.34 0-1.617-.722-2.469-1.465-2.747-.756-.282-1.96-.131-3.23 1.165-.205.21-.487.329-.782.329Z" fill="#EC837D"/></svg>