<svg width="286" height="369" fill="none" xmlns="http://www.w3.org/2000/svg"><mask id="mask0_606_9564" style="mask-type:luminance" maskUnits="userSpaceOnUse" x="0" y="0" width="286" height="369"><path d="M0 .404h286v368H0v-368Z" fill="#fff"/></mask><g mask="url('#mask0_606_9564')"><path d="m255.066 152.232 28.923-15.641.497.213a.852.852 0 0 0 .341.071c.301 0 .594-.155.73-.422.19-.368.015-.807-.385-.981l-.725-.306-8.57-21.881.307-.195c.365-.236.453-.693.195-1.026-.254-.333-.755-.412-1.12-.177l-.38.24-18.673-7.981-.034-.421a.745.745 0 0 0-.56-.639.867.867 0 0 0-.891.017l-.38.244-18.669-7.984-.039-.422c-.039-.404-.418-.701-.871-.67-.443.03-.769.386-.735.794l.019.2-24.097 8.051-.721-.31c-.409-.173-.886-.014-1.071.355-.19.364-.02.803.384.976l.497.213 5.322 30.279c-2.62 5.095-2.736 10.67-.818 15.579a101.997 101.997 0 0 0-29.692-2.943c-11.949-34.864-47.63-60.162-89.792-60.162C42.108 87.303 0 125.708 0 173.088c0 47.38 42.108 85.785 94.058 85.785 1.626 0 3.238-.036 4.844-.111 7.611 22.143 24.984 41.415 49.836 52.04 47.036 20.11 103.042 1.638 125.089-41.264 19.74-38.401 5.556-83.339-31.367-106.765 5.366-1.798 9.987-5.446 12.606-10.541ZM95.177 242.668c-.374.009-.744.014-1.12.014-42.074 0-76.304-31.22-76.304-69.594 0-38.375 34.23-69.594 76.305-69.594 33.164 0 61.444 19.391 71.942 46.394-26.542 6.014-49.992 22.481-62.506 46.83-7.65 14.877-10.2 30.74-8.317 45.95Zm24.39-39.08c10.079-19.608 28.972-32.932 50.367-37.895.282 2.433.433 4.896.433 7.395 0 32.475-24.516 59.825-57.558 67.468-1.466-12.255.613-25.011 6.758-36.968Zm138.187 59.08c-17.86 34.748-63.382 49.763-101.483 33.474-19.214-8.215-32.92-22.849-39.504-39.79 40.979-9.267 71.353-43.03 71.353-83.264 0-3.227-.204-6.405-.584-9.538 11.233-.169 22.676 1.93 33.514 6.564 38.097 16.289 54.564 57.806 36.704 92.554ZM184.366 73.792l19.486 3.325-19.486 3.324-3.642 17.771-3.647-17.771-19.487-3.325 19.487-3.324 3.647-17.771 3.642 17.771Zm31.221-34.784-30.452-5.197 30.452-5.197L221.284.838l5.697 27.776 30.452 5.197-30.452 5.193-5.697 27.776-5.697-27.772ZM46.257 297.837l-19.481 3.325-3.648 17.771-3.646-17.771L0 297.837l19.482-3.324 3.646-17.771 3.648 17.771 19.481 3.324Zm30.053 31.797 30.451 5.197-30.451 5.198-5.697 27.771-5.697-27.771-30.452-5.198 30.452-5.197 5.697-27.771 5.697 27.771Z" fill="#EBC07D"/></g><mask id="mask1_606_9564" style="mask-type:luminance" maskUnits="userSpaceOnUse" x="0" y="86" width="284" height="234"><path d="M0 86.757h283.507v232.926H0V86.757Z" fill="#fff"/></mask><g mask="url('#mask1_606_9564')"><path d="M242.46 162.773c5.366-1.797 9.987-5.446 12.606-10.541l-12.708-5.433-.059.085a.833.833 0 0 1-.677.337.868.868 0 0 1-.438-.12.686.686 0 0 1-.277-.923l-12.383-5.291a.807.807 0 0 1-.72.426.965.965 0 0 1-.244-.035c-.423-.124-.657-.537-.521-.923l.03-.093-3.136-1.341-9.573-4.092c-2.62 5.095-2.736 10.67-.818 15.579a102.031 102.031 0 0 0-29.692-2.943c-11.949-34.863-47.63-60.162-89.792-60.162C42.108 87.303 0 125.708 0 173.088c0 47.38 42.108 85.785 94.058 85.785 1.626 0 3.238-.035 4.844-.111 7.611 22.143 24.984 41.415 49.836 52.04 47.036 20.11 103.042 1.638 125.089-41.264 19.74-38.4 5.556-83.339-31.367-106.765ZM95.177 242.668c-.374.009-.745.014-1.12.014-42.074 0-76.304-31.22-76.304-69.594 0-38.374 34.23-69.594 76.305-69.594 33.163 0 61.444 19.391 71.942 46.394-26.542 6.014-49.992 22.481-62.506 46.83-7.65 14.877-10.2 30.74-8.317 45.95Zm24.39-39.08c10.079-19.608 28.972-32.932 50.367-37.894.282 2.432.433 4.895.433 7.394 0 32.476-24.516 59.825-57.558 67.468-1.466-12.255.613-25.011 6.758-36.968Zm138.187 59.08c-17.86 34.748-63.382 49.763-101.483 33.474-19.214-8.215-32.92-22.849-39.504-39.79 40.979-9.267 71.353-43.03 71.353-83.264 0-3.227-.204-6.405-.584-9.538 11.233-.169 22.676 1.93 33.514 6.564 38.097 16.289 54.564 57.806 36.704 92.554Z" fill="#D59F35"/></g><path d="m285.172 135.473-.725-.307-25.626-10.958 17.056-10.923.307-.195c.365-.235.453-.692.195-1.025-.253-.333-.755-.413-1.12-.178l-.38.24-16.974 10.869-1.699-18.849-.034-.422a.744.744 0 0 0-.56-.639.864.864 0 0 0-.891.018l-.38.244-16.974 10.869-1.694-18.854-.039-.422c-.039-.404-.419-.7-.872-.67-.443.031-.769.386-.735.795l.019.2 1.719 19.084-25.816-11.033-.721-.311c-.409-.173-.886-.013-1.071.355-.19.364-.02.803.385.976l.496.213 26.479 11.318-8.448 24.394-.029.093c-.137.386.097.799.525.923a.9.9 0 0 0 .239.036.8.8 0 0 0 .721-.431c.014-.027.039-.053.048-.084l8.414-24.3 19.058 8.144-15.104 21.442c-.019.031-.02.062-.034.093a.686.686 0 0 0 .277.923c.137.08.288.116.439.116.263 0 .521-.12.676-.338l.059-.08 15.158-21.526 26.473 11.318.497.213a.852.852 0 0 0 .341.071.809.809 0 0 0 .73-.426c.19-.364.015-.803-.385-.976Zm-46.89-20.044 16.38-10.492 1.641 18.193-18.021-7.701Z" fill="#fff"/></svg>