<svg width="264" height="77" fill="none" xmlns="http://www.w3.org/2000/svg"><path d="M75.1 42.003c-.4-.053-.947-.16-1.64-.32-.693-.133-1.4-.413-2.12-.84-.72-.426-1.333-1.08-1.84-1.96-.507-.853-.76-2-.76-3.44 0-1.653.333-3.466 1-5.44.693-2 1.533-4.08 2.52-6.24.987-2.16 1.933-4.293 2.84-6.4.72-1.68 1.08-2.96 1.08-3.84 0-.88-.333-1.32-1-1.32-.747 0-1.867.6-3.36 1.8-1.467 1.174-3.173 2.96-5.12 5.36-.507.64-1.16 1.534-1.96 2.68a111.3 111.3 0 0 0-2.56 3.76c-.907 1.36-1.8 2.747-2.68 4.16a128.814 128.814 0 0 0-2.28 3.84c-.64 1.174-1.107 2.107-1.4 2.8-.347.827-.747 1.387-1.2 1.68-.453.32-.88.48-1.28.48-.347 0-.653-.093-.92-.28-.24-.186-.36-.413-.36-.68 0-.16.04-.293.12-.4.16-.32.587-1.093 1.28-2.32.693-1.226 1.48-2.853 2.36-4.88.88-2.053 1.72-4.426 2.52-7.12.827-2.72 1.44-5.72 1.84-9a8.5 8.5 0 0 0 .08-1.2c0-.933-.16-1.613-.48-2.04-.32-.453-.747-.68-1.28-.68-.587 0-1.253.254-2 .76-.747.507-1.507 1.24-2.28 2.2a102.315 102.315 0 0 0-3.52 4.68 64.497 64.497 0 0 0-2.8 4.24 98.672 98.672 0 0 0-2.48 4.52c-.8 1.6-1.653 3.4-2.56 5.4a881.361 881.361 0 0 0-3.12 6.88 1.714 1.714 0 0 1-.96.92c-.427.187-.827.28-1.2.28s-.68-.08-.92-.24c-.24-.16-.32-.386-.24-.68.693-1.066 1.44-2.413 2.24-4.04.8-1.626 1.6-3.4 2.4-5.32a98.913 98.913 0 0 0 2.28-5.88c.72-2 1.333-3.88 1.84-5.64.507-1.786.853-3.333 1.04-4.64.053-.426.093-.826.12-1.2.027-.373.04-.733.04-1.08 0-2.053-.44-3.52-1.32-4.4-.853-.88-1.96-1.32-3.32-1.32-1.147 0-2.4.267-3.76.8-1.333.507-2.693 1.214-4.08 2.12a28.663 28.663 0 0 0-3.92 3.16 24.761 24.761 0 0 0-3.32 3.8c-.96 1.334-1.693 2.694-2.2 4.08a21.94 21.94 0 0 0-.8 2.84 13.9 13.9 0 0 0-.24 2.48c0 1.494.267 2.76.8 3.8.56 1.04 1.293 1.827 2.2 2.36.933.534 1.933.8 3 .8.373 0 .787-.04 1.24-.12.48-.106.88-.213 1.2-.32.773-.293 1.52-.746 2.24-1.36.72-.64 1.36-1.373 1.92-2.2.56-.826 1-1.666 1.32-2.52.32-.853.48-1.653.48-2.4 0-.773-.213-1.413-.64-1.92-.427-.506-1.107-.76-2.04-.76-.107 0-.227.014-.36.04h-.48c-.187 0-.36-.026-.52-.08-.16-.08-.24-.173-.24-.28 0-.106.133-.226.4-.36.293-.133.813-.2 1.56-.2 1.2 0 2.093.36 2.68 1.08.613.694.92 1.587.92 2.68 0 .987-.267 2.054-.8 3.2-.533 1.147-1.333 2.24-2.4 3.28-1.067 1.04-2.413 1.894-4.04 2.56-.96.374-1.893.56-2.8.56a7.71 7.71 0 0 1-3.8-1c-1.2-.693-2.173-1.666-2.92-2.92-.747-1.28-1.12-2.786-1.12-4.52 0-.773.08-1.586.24-2.44.187-.88.48-1.786.88-2.72a21.85 21.85 0 0 1 3.56-5.68c1.52-1.76 3.2-3.28 5.04-4.56 1.84-1.306 3.707-2.32 5.6-3.04 1.893-.72 3.653-1.08 5.28-1.08 1.973 0 3.6.587 4.88 1.76 1.307 1.174 1.96 3.067 1.96 5.68 0 .187-.013.44-.04.76 0 .294-.013.52-.04.68-.16 1.36-.44 2.72-.84 4.08a51.964 51.964 0 0 1-1.24 3.92 5.06 5.06 0 0 0-.2.68 4.25 4.25 0 0 0-.04.44c0 .134.027.2.08.2.107 0 .32-.28.64-.84a135.73 135.73 0 0 1 1.64-2.92c.507-.853 1-1.626 1.48-2.32.48-.693 1-1.4 1.56-2.12.56-.72 1.2-1.52 1.92-2.4a9.945 9.945 0 0 1 2.84-2.36c1.067-.586 2.093-.88 3.08-.88.88 0 1.627.294 2.24.88.613.587.92 1.587.92 3v.4c0 .107-.013.267-.04.48-.24 2.56-.747 5.08-1.52 7.56a590.645 590.645 0 0 1-2.4 7.44c.827-1.28 1.947-2.906 3.36-4.88a148.953 148.953 0 0 1 4.64-6.12c2.053-2.56 3.96-4.48 5.72-5.76 1.76-1.28 3.213-1.92 4.36-1.92 1.44 0 2.16.88 2.16 2.64 0 .667-.133 1.467-.4 2.4-.24.934-.627 1.92-1.16 2.96a164.075 164.075 0 0 0-1.96 4.08 81.386 81.386 0 0 0-2 4.8 48.54 48.54 0 0 0-1.6 4.96c-.4 1.6-.6 3.08-.6 4.44 0 1.467.333 2.654 1 3.56.693.934 1.88 1.374 3.56 1.32h.24c.4 0 .6.08.6.24 0 .107-.133.214-.4.32-.267.107-.64.134-1.12.08Zm2.358-4.6c-.294 0-.654-.066-1.08-.2a2.57 2.57 0 0 1-1.08-.72c-.294-.373-.44-.92-.44-1.64 0-.693.16-1.36.48-2 .346-.666.666-1.306.96-1.92a.644.644 0 0 1-.28-.08.27.27 0 0 1-.12-.24.71.71 0 0 1 .08-.32c.106-.213.226-.44.36-.68.133-.24.253-.493.36-.76.4-.826.8-1.613 1.2-2.36.4-.773.746-1.453 1.04-2.04.293-.586.8-.88 1.52-.88h2.48a8.526 8.526 0 0 0-1.24 1.16c-.347.4-.787 1.147-1.32 2.24l-.28.56-.72 1.44c-.267.56-.547 1.134-.84 1.72-.267.587-.494 1.08-.68 1.48-.347.747-.574 1.347-.68 1.8a4.96 4.96 0 0 0-.16 1.2c0 .88.293 1.32.88 1.32.64 0 1.413-.52 2.32-1.56.746-.88 1.48-1.933 2.2-3.16.72-1.226 1.4-2.493 2.04-3.8.666-1.306 1.253-2.48 1.76-3.52.293-.586.813-.88 1.56-.88h2.2c-.4.32-.734.627-1 .92-.267.267-.534.64-.8 1.12-.24.454-.574 1.107-1 1.96-.347.72-.72 1.494-1.12 2.32-.374.8-.707 1.56-1 2.28-.294.72-.48 1.307-.56 1.76a6.745 6.745 0 0 1-.08.6c-.027.134-.04.28-.04.44 0 .507.08.867.24 1.08.186.214.4.32.64.32.64 0 1.28-.36 1.92-1.08.666-.72 1.293-1.6 1.88-2.64a32.312 32.312 0 0 0 1.56-2.96c.16-.293.306-.44.44-.44.16 0 .24.094.24.28 0 .134-.054.294-.16.48-.294.64-.654 1.374-1.08 2.2a25.41 25.41 0 0 1-1.44 2.44c-.534.8-1.12 1.467-1.76 2-.64.507-1.334.76-2.08.76-.667 0-1.214-.24-1.64-.72-.427-.506-.64-1.213-.64-2.12 0-.72.133-1.493.4-2.32-.454.8-.974 1.6-1.56 2.4-.587.8-1.214 1.467-1.88 2-.667.507-1.334.76-2 .76Zm16.415.16c-1.52 0-2.587-.36-3.2-1.08-.614-.746-.92-1.653-.92-2.72 0-1.173.266-2.426.8-3.76.56-1.333 1.213-2.493 1.96-3.48.773-1.04 1.626-1.84 2.56-2.4.933-.586 1.88-.88 2.84-.88 1.013 0 1.76.254 2.24.76.48.507.666 1.187.56 2.04-.054.534-.307 1.067-.76 1.6-.454.507-.907.76-1.36.76-.214 0-.4-.08-.56-.24.213-.266.44-.586.68-.96a4.42 4.42 0 0 0 .52-1.08c.106-.32.16-.64.16-.96 0-.666-.32-1-.96-1-.72 0-1.48.374-2.28 1.12a14.248 14.248 0 0 0-2.04 2.36c-.24.32-.534.827-.88 1.52-.32.667-.614 1.414-.88 2.24-.267.8-.4 1.587-.4 2.36 0 .8.173 1.52.52 2.16.373.614.986.92 1.84.92 1.173 0 2.173-.36 3-1.08.853-.746 1.6-1.666 2.24-2.76a50.292 50.292 0 0 0 1.8-3.2c.16-.32.32-.48.48-.48.133 0 .2.107.2.32 0 .107-.04.24-.12.4a45.574 45.574 0 0 1-1.96 3.8c-.667 1.147-1.48 2.054-2.44 2.72-.934.667-2.147 1-3.64 1Zm3.27.16c1.12-2.293 2.28-4.693 3.479-7.2 1.227-2.533 2.48-5.08 3.76-7.64 1.28-2.56 2.547-5 3.8-7.32.454-.8.867-1.426 1.24-1.88.4-.453.92-.68 1.56-.68.24 0 .52.04.84.12.32.08.627.094.92.04-.346.374-.826 1.027-1.44 1.96a96.434 96.434 0 0 0-2 3.36c-.72 1.307-1.493 2.72-2.32 4.24-.8 1.494-1.6 3.014-2.4 4.56a727.83 727.83 0 0 0-2.16 4.28 30.579 30.579 0 0 1 1.64-1.96 18.289 18.289 0 0 1 1.64-1.6c.587-.533 1.32-1.093 2.2-1.68.907-.586 1.8-1.093 2.68-1.52.907-.426 1.627-.64 2.16-.64.187 0 .32.014.4.04l-.44.8-1.12 2.04c-.426.827-.88 1.72-1.36 2.68-.453.96-.853 1.88-1.2 2.76-.346.854-.573 1.56-.68 2.12a6.03 6.03 0 0 0-.12 1.08c0 .427.08.72.24.88.16.134.334.2.52.2.454 0 .947-.28 1.48-.84.534-.56 1.054-1.24 1.56-2.04a37.92 37.92 0 0 0 1.36-2.4 52.74 52.74 0 0 0 .96-1.8c.16-.293.32-.44.48-.44.16 0 .24.107.24.32 0 .107-.04.267-.12.48-.346.694-.746 1.48-1.2 2.36-.426.854-.92 1.68-1.48 2.48a8.284 8.284 0 0 1-1.8 1.92c-.64.507-1.333.76-2.08.76-.533 0-1.08-.186-1.64-.56-.56-.373-.84-1.053-.84-2.04 0-.293.027-.6.08-.92.054-.346.147-.733.28-1.16.16-.533.427-1.12.8-1.76.374-.666.854-1.493 1.44-2.48.267-.453.4-.813.4-1.08 0-.32-.16-.48-.48-.48-.266 0-.626.134-1.08.4-.453.267-1.026.734-1.72 1.4-.666.64-1.493 1.574-2.48 2.8-.986 1.227-2.04 2.947-3.16 5.16-.186.347-.4.534-.64.56-.213 0-.507.014-.88.04-.24.027-.48.04-.72.04-.24.027-.44.107-.6.24Zm25.839-.2c-.294.027-.627-.04-1-.2-.374-.16-.707-.453-1-.88-.267-.426-.4-1.026-.4-1.8 0-.64.12-1.413.36-2.32a72.2 72.2 0 0 1-1.24 1.88c-.507.72-1.054 1.36-1.64 1.92-.507.48-.987.827-1.44 1.04-.454.214-.867.32-1.24.32-.694 0-1.254-.306-1.68-.92-.427-.64-.64-1.466-.64-2.48 0-1.066.266-2.28.8-3.64.533-1.36 1.4-2.773 2.6-4.24a8.803 8.803 0 0 1 2.8-2.24c1.12-.586 2.213-.88 3.28-.88.613 0 1.2.107 1.76.32.56.187 1.053.507 1.48.96.186.187.28.4.28.64 0 .16-.067.294-.2.4-.134.107-.307.134-.52.08-.294-.933-.92-1.4-1.88-1.4-.454 0-.974.147-1.56.44-.907.48-1.854 1.267-2.84 2.36a24.875 24.875 0 0 0-2.52 3.4c-.107.16-.28.467-.52.92-.214.454-.427.96-.64 1.52a7.863 7.863 0 0 0-.44 1.64c-.027.16-.04.28-.04.36v.28c0 .88.333 1.32 1 1.32.8 0 1.706-.586 2.72-1.76a23.093 23.093 0 0 0 1.88-2.68 92.792 92.792 0 0 0 1.72-3c.4-.72.773-1.32 1.12-1.8.346-.48.84-.72 1.48-.72.293 0 .586.04.88.12.293.08.6.094.92.04-.214.214-.507.614-.88 1.2-.347.587-.72 1.254-1.12 2-.4.747-.76 1.507-1.08 2.28-.32.774-.547 1.44-.68 2-.027.16-.067.387-.12.68-.027.294-.04.507-.04.64 0 .747.213 1.12.64 1.12.426 0 .88-.253 1.36-.76.506-.506 1-1.133 1.48-1.88.48-.746.92-1.493 1.32-2.24.4-.773.72-1.4.96-1.88.106-.266.266-.4.48-.4.133 0 .2.094.2.28 0 .08-.04.227-.12.44-.32.667-.707 1.427-1.16 2.28-.454.827-.947 1.64-1.48 2.44a11.364 11.364 0 0 1-1.68 1.96c-.56.507-1.134.787-1.72.84Zm6.342.04c-1.307 0-2.24-.333-2.8-1-.533-.693-.8-1.413-.8-2.16 0-.613.147-1.173.44-1.68.32-.506.693-.773 1.12-.8.533-1.04 1.107-2.173 1.72-3.4a86.85 86.85 0 0 0 1.76-3.56c.373-.773.84-1.52 1.4-2.24.587-.72 1.227-1.133 1.92-1.24h.4c.213 0 .4.014.56.04.187.027.373.08.56.16.293.134.44.334.44.6 0 .16-.093.24-.28.24-.08 0-.187-.04-.32-.12-.32-.133-.6-.2-.84-.2-.16 0-.307.04-.44.12-.507.267-.867.64-1.08 1.12a4.15 4.15 0 0 0-.28 1.52c0 .427.04.867.12 1.32.107.427.227.814.36 1.16.293.747.6 1.48.92 2.2.347.72.52 1.494.52 2.32 0 .8-.267 1.654-.8 2.56a6.464 6.464 0 0 1-2.04 2.12l.28.04c.133.027.227.04.28.04h.12c.613 0 1.187-.173 1.72-.52a6.517 6.517 0 0 0 1.48-1.36c.427-.533.907-1.28 1.44-2.24.56-.96 1.093-1.973 1.6-3.04.08-.133.173-.2.28-.2.133 0 .227.054.28.16.08.08.093.187.04.32-.347.747-.747 1.56-1.2 2.44-.427.854-.92 1.68-1.48 2.48a7.865 7.865 0 0 1-1.96 1.92c-.72.48-1.533.72-2.44.72-.213 0-.44-.013-.68-.04-.24-.026-.48-.08-.72-.16a4.36 4.36 0 0 1-.84.24c-.267.08-.52.12-.76.12Zm1.2-1.2c.453-.373.853-.92 1.2-1.64.373-.72.56-1.666.56-2.84 0-1.04-.107-2.146-.32-3.32-.213-1.173-.32-2.213-.32-3.12v-.48c.027-.16.053-.306.08-.44-.347.72-.747 1.56-1.2 2.52-.453.934-.907 1.84-1.36 2.72-.453.88-.84 1.627-1.16 2.24l.2.04c.16 0 .307.094.44.28.133.16.187.494.16 1-.027.667.12 1.294.44 1.88.347.56.773.947 1.28 1.16Zm-1.52.56c.16 0 .307-.013.44-.04.133-.053.253-.093.36-.12-.4-.293-.76-.68-1.08-1.16-.293-.506-.467-1.146-.52-1.92-.48.507-.72 1.054-.72 1.64 0 .427.133.8.4 1.12.267.32.64.48 1.12.48Zm17.344 13.24c-2.533 0-3.8-1.04-3.8-3.12 0-.986.347-1.866 1.04-2.64a10.2 10.2 0 0 1 2.48-2c1.333-.8 2.627-1.44 3.88-1.92a86.17 86.17 0 0 1 3.56-1.28 32.747 32.747 0 0 0 3.24-1.16c.48-1.413.8-2.893.96-4.44.08-.8.12-1.493.12-2.08 0-.613-.04-1.013-.12-1.2-.293.56-.68 1.24-1.16 2.04a22.14 22.14 0 0 1-1.64 2.36 10.158 10.158 0 0 1-2 1.88c-.693.507-1.413.76-2.16.76-.267 0-.52-.04-.76-.12-.747-.32-1.293-.773-1.64-1.36-.32-.586-.48-1.253-.48-2 0-1.2.347-2.493 1.04-3.88a19.414 19.414 0 0 1 2.48-3.8 9.124 9.124 0 0 1 2.72-2.24c1.04-.56 2.093-.84 3.16-.84 1.227 0 2.373.414 3.44 1.24.4.32.6.667.6 1.04 0 .4-.16.6-.48.6-.267 0-.453-.173-.56-.52-.373-.986-.973-1.48-1.8-1.48-.667 0-1.427.294-2.28.88a11.833 11.833 0 0 0-2.4 2.12c-.64.72-1.267 1.547-1.88 2.48a21.503 21.503 0 0 0-1.48 2.76c-.373.907-.56 1.694-.56 2.36 0 .454.107.84.32 1.16.213.32.547.48 1 .48.613 0 1.253-.293 1.92-.88a11.917 11.917 0 0 0 1.96-2.16c.64-.853 1.187-1.72 1.64-2.6.48-.88.813-1.613 1-2.2.187-.613.44-.986.76-1.12.32-.16.64-.24.96-.24.32 0 .587-.08.8-.24.107.587.173 1.187.2 1.8a20 20 0 0 1 .08 1.8c0 2.054-.267 4.12-.8 6.2.48-.373.973-.773 1.48-1.2a8.57 8.57 0 0 0 1.36-1.44c.667-.906 1.16-1.733 1.48-2.48.347-.773.613-1.373.8-1.8.16-.266.333-.4.52-.4.16 0 .24.08.24.24 0 .134-.053.294-.16.48a64.886 64.886 0 0 1-1.84 3.64c-.56.987-1.173 1.827-1.84 2.52-.667.667-1.493 1.24-2.48 1.72-.427 1.28-1.067 2.627-1.92 4.04a25.217 25.217 0 0 1-3 4c-1.147 1.254-2.4 2.267-3.76 3.04-1.36.8-2.773 1.2-4.24 1.2Zm-.96-.8c.587 0 1.2-.133 1.84-.4.667-.24 1.293-.533 1.88-.88.587-.346 1.04-.64 1.36-.88.613-.48 1.24-1.08 1.88-1.8.64-.72 1.2-1.413 1.68-2.08.453-.64.88-1.32 1.28-2.04.427-.693.787-1.386 1.08-2.08-.213.08-.48.174-.8.28a24.34 24.34 0 0 0-.64.24c-.88.294-1.853.627-2.92 1-1.04.4-2.08.827-3.12 1.28-1.04.48-1.987 1-2.84 1.56a6.036 6.036 0 0 0-1.84 2c-.507.827-.76 1.547-.76 2.16 0 .454.16.84.48 1.16.293.32.773.48 1.44.48Zm24.182-11.92c-.506 0-1.013-.2-1.52-.6-.506-.426-.76-1.106-.76-2.04 0-.72.174-1.546.52-2.48.32-.906.747-1.786 1.28-2.64.56-.853.96-1.546 1.2-2.08.08-.213.12-.4.12-.56 0-.48-.306-.826-.92-1.04-.586-.213-1.36-.333-2.32-.36l-.48 1.32c-.293.854-.706 1.854-1.24 3a29.936 29.936 0 0 1-1.72 3.32c-.613 1.067-1.253 1.92-1.92 2.56a.27.27 0 0 1-.2.08c-.106 0-.173-.066-.2-.2-.053-.133 0-.293.16-.48a28.878 28.878 0 0 0 2.8-4.6 39.1 39.1 0 0 0 2.08-5.2c.587-1.76 1.014-3.386 1.28-4.88.08-.426.227-.733.44-.92.214-.213.44-.32.68-.32.347 0 .667.174.96.52.294.32.44.787.44 1.4 0 .107-.013.227-.04.36 0 .134-.013.267-.04.4-.106.56-.426 1.094-.96 1.6-.506.48-.92.84-1.24 1.08.267.027.547.054.84.08h.96c1.254 0 2.494-.08 3.72-.24.054.16.08.28.08.36 0 .347-.106.787-.32 1.32a12.112 12.112 0 0 1-.6 1.44c-.106.24-.32.68-.64 1.32-.32.614-.666 1.32-1.04 2.12a21.478 21.478 0 0 0-.96 2.32c-.24.747-.36 1.387-.36 1.92 0 .694.267 1.04.8 1.04.4 0 .84-.253 1.32-.76.48-.533.947-1.173 1.4-1.92.48-.773.907-1.52 1.28-2.24.4-.746.707-1.333.92-1.76.107-.266.254-.4.44-.4.107 0 .16.094.16.28 0 .107-.04.267-.12.48a74.23 74.23 0 0 1-1.04 2.08 22.26 22.26 0 0 1-1.36 2.28 10.65 10.65 0 0 1-1.6 1.96c-.56.534-1.173.88-1.84 1.04-.08.027-.226.04-.44.04Zm14.31.08c-.293.027-.627-.04-1-.2s-.707-.453-1-.88c-.267-.426-.4-1.026-.4-1.8 0-.64.12-1.413.36-2.32-.32.507-.733 1.134-1.24 1.88-.507.72-1.053 1.36-1.64 1.92-.507.48-.987.827-1.44 1.04-.453.214-.867.32-1.24.32-.693 0-1.253-.306-1.68-.92-.427-.64-.64-1.466-.64-2.48 0-1.066.267-2.28.8-3.64.533-1.36 1.4-2.773 2.6-4.24a8.814 8.814 0 0 1 2.8-2.24c1.12-.586 2.213-.88 3.28-.88.613 0 1.2.107 1.76.32.56.187 1.053.507 1.48.96.187.187.28.4.28.64 0 .16-.067.294-.2.4-.133.107-.307.134-.52.08-.293-.933-.92-1.4-1.88-1.4-.453 0-.973.147-1.56.44-.907.48-1.853 1.267-2.84 2.36a24.875 24.875 0 0 0-2.52 3.4c-.107.16-.28.467-.52.92-.213.454-.427.96-.64 1.52a7.925 7.925 0 0 0-.44 1.64c-.027.16-.04.28-.04.36v.28c0 .88.333 1.32 1 1.32.8 0 1.707-.586 2.72-1.76a23.093 23.093 0 0 0 1.88-2.68 92.792 92.792 0 0 0 1.72-3c.4-.72.773-1.32 1.12-1.8.347-.48.84-.72 1.48-.72.293 0 .587.04.88.12.293.08.6.094.92.04-.213.214-.507.614-.88 1.2-.347.587-.72 1.254-1.12 2-.4.747-.76 1.507-1.08 2.28-.32.774-.547 1.44-.68 2-.027.16-.067.387-.12.68-.027.294-.04.507-.04.64 0 .747.213 1.12.64 1.12.427 0 .88-.253 1.36-.76.507-.506 1-1.133 1.48-1.88.48-.746.92-1.493 1.32-2.24.4-.773.72-1.4.96-1.88.107-.266.267-.4.48-.4.133 0 .2.094.2.28 0 .08-.04.227-.12.44-.32.667-.707 1.427-1.16 2.28a33.02 33.02 0 0 1-1.48 2.44 11.278 11.278 0 0 1-1.68 1.96c-.56.507-1.133.787-1.72.84Zm8.743.04c-1.52 0-2.587-.36-3.2-1.08-.614-.746-.92-1.653-.92-2.72 0-1.173.266-2.426.8-3.76.56-1.333 1.213-2.493 1.96-3.48.773-1.04 1.626-1.84 2.56-2.4.933-.586 1.88-.88 2.84-.88 1.013 0 1.76.254 2.24.76.48.507.666 1.187.56 2.04-.054.534-.307 1.067-.76 1.6-.454.507-.907.76-1.361.76a.766.766 0 0 1-.559-.24c.213-.266.44-.586.68-.96.24-.373.413-.733.52-1.08.106-.32.16-.64.16-.96 0-.666-.32-1-.96-1-.72 0-1.48.374-2.28 1.12a14.183 14.183 0 0 0-2.04 2.36c-.24.32-.534.827-.88 1.52-.32.667-.614 1.414-.88 2.24-.267.8-.4 1.587-.4 2.36 0 .8.173 1.52.52 2.16.373.614.986.92 1.84.92 1.173 0 2.173-.36 3-1.08.853-.746 1.6-1.666 2.24-2.76a50.525 50.525 0 0 0 1.8-3.2c.16-.32.32-.48.48-.48.133 0 .2.107.2.32 0 .107-.04.24-.12.4a45.728 45.728 0 0 1-1.96 3.8c-.667 1.147-1.48 2.054-2.44 2.72-.934.667-2.147 1-3.64 1Zm11.589-16.4c-.4 0-.733-.133-1-.4-.24-.293-.36-.64-.36-1.04 0-.506.2-.946.6-1.32.4-.373.84-.56 1.32-.56.427 0 .774.134 1.04.4.267.267.4.587.4.96 0 .507-.2.96-.6 1.36-.4.4-.866.6-1.4.6Zm-3.24 16.24c-.986 0-1.68-.28-2.08-.84-.4-.586-.6-1.253-.6-2 0-.4.04-.8.12-1.2.107-.426.227-.813.36-1.16l2.68-6.84c.08-.213.12-.4.12-.56 0-.266-.066-.493-.2-.68-.133-.213-.226-.36-.28-.44l2.2-.08c.4-.026.68.027.84.16.187.107.28.24.28.4 0 .16-.093.454-.28.88l-3.32 7.8-.24.52c-.133.32-.213.534-.24.64-.08.4-.133.654-.16.76-.026.107-.04.174-.04.2v.32c0 .347.08.64.24.88.187.24.494.36.92.36.267 0 .574-.08.92-.24.347-.16.6-.32.76-.48.667-.693 1.32-1.6 1.96-2.72a61.172 61.172 0 0 0 1.84-3.4c.107-.266.24-.4.4-.4.134 0 .2.094.2.28 0 .107-.04.267-.12.48-.266.56-.6 1.254-1 2.08-.4.827-.88 1.654-1.44 2.48-.533.8-1.12 1.467-1.76 2-.64.534-1.333.8-2.08.8Zm14.431.12c-.293.027-.626-.04-1-.2-.373-.16-.706-.453-1-.88-.266-.426-.4-1.026-.4-1.8 0-.64.12-1.413.36-2.32-.32.507-.733 1.134-1.24 1.88-.506.72-1.053 1.36-1.64 1.92-.506.48-.986.827-1.44 1.04-.453.214-.866.32-1.24.32-.693 0-1.253-.306-1.68-.92-.426-.64-.64-1.466-.64-2.48 0-1.066.267-2.28.8-3.64.534-1.36 1.4-2.773 2.6-4.24a8.825 8.825 0 0 1 2.8-2.24c1.12-.586 2.214-.88 3.28-.88a4.9 4.9 0 0 1 1.76.32c.56.187 1.054.507 1.48.96.187.187.28.4.28.64a.49.49 0 0 1-.2.4c-.133.107-.306.134-.52.08-.293-.933-.92-1.4-1.88-1.4-.453 0-.973.147-1.56.44-.906.48-1.853 1.267-2.84 2.36a24.875 24.875 0 0 0-2.52 3.4c-.106.16-.28.467-.52.92-.213.454-.426.96-.64 1.52a7.925 7.925 0 0 0-.44 1.64 2.5 2.5 0 0 0-.04.36v.28c0 .88.334 1.32 1 1.32.8 0 1.707-.586 2.72-1.76a22.972 22.972 0 0 0 1.88-2.68 90.955 90.955 0 0 0 1.72-3c.4-.72.774-1.32 1.12-1.8.347-.48.84-.72 1.48-.72.294 0 .587.04.88.12.294.08.6.094.92.04-.213.214-.506.614-.88 1.2-.346.587-.72 1.254-1.12 2-.4.747-.76 1.507-1.08 2.28-.32.774-.546 1.44-.68 2-.026.16-.066.387-.12.68-.026.294-.04.507-.04.64 0 .747.214 1.12.64 1.12.427 0 .88-.253 1.36-.76.507-.506 1-1.133 1.48-1.88.48-.746.92-1.493 1.32-2.24.4-.773.72-1.4.96-1.88.107-.266.267-.4.48-.4.134 0 .2.094.2.28 0 .08-.04.227-.12.44-.32.667-.706 1.427-1.16 2.28-.453.827-.946 1.64-1.48 2.44a11.278 11.278 0 0 1-1.68 1.96c-.56.507-1.133.787-1.72.84Zm6.343.04c-1.307 0-2.24-.333-2.8-1-.533-.693-.8-1.413-.8-2.16 0-.613.147-1.173.44-1.68.32-.506.693-.773 1.12-.8.533-1.04 1.107-2.173 1.72-3.4a86.85 86.85 0 0 0 1.76-3.56c.373-.773.84-1.52 1.4-2.24.587-.72 1.227-1.133 1.92-1.24h.4c.213 0 .4.014.56.04.187.027.373.08.56.16.293.134.44.334.44.6 0 .16-.093.24-.28.24-.08 0-.187-.04-.32-.12-.32-.133-.6-.2-.84-.2-.16 0-.307.04-.44.12-.507.267-.867.64-1.08 1.12a4.15 4.15 0 0 0-.28 1.52c0 .427.04.867.12 1.32.107.427.227.814.36 1.16.293.747.6 1.48.92 2.2.347.72.52 1.494.52 2.32 0 .8-.267 1.654-.8 2.56a6.464 6.464 0 0 1-2.04 2.12l.28.04c.133.027.227.04.28.04h.12c.613 0 1.187-.173 1.72-.52a6.517 6.517 0 0 0 1.48-1.36c.427-.533.907-1.28 1.44-2.24.56-.96 1.093-1.973 1.6-3.04.08-.133.173-.2.28-.2.133 0 .227.054.28.16.08.08.093.187.04.32-.347.747-.747 1.56-1.2 2.44-.427.854-.92 1.68-1.48 2.48a7.865 7.865 0 0 1-1.96 1.92c-.72.48-1.533.72-2.44.72-.213 0-.44-.013-.68-.04-.24-.026-.48-.08-.72-.16a4.36 4.36 0 0 1-.84.24c-.267.08-.52.12-.76.12Zm1.2-1.2c.453-.373.853-.92 1.2-1.64.373-.72.56-1.666.56-2.84 0-1.04-.107-2.146-.32-3.32-.213-1.173-.32-2.213-.32-3.12v-.48c.027-.16.053-.306.08-.44-.347.72-.747 1.56-1.2 2.52-.453.934-.907 1.84-1.36 2.72-.453.88-.84 1.627-1.16 2.24l.2.04c.16 0 .307.094.44.28.133.16.187.494.16 1-.027.667.12 1.294.44 1.88.347.56.773.947 1.28 1.16Zm-1.52.56c.16 0 .307-.013.44-.04.133-.053.253-.093.36-.12-.4-.293-.76-.68-1.08-1.16-.293-.506-.467-1.146-.52-1.92-.48.507-.72 1.054-.72 1.64 0 .427.133.8.4 1.12.267.32.64.48 1.12.48ZM238.758 34.936c.695 0 .973.556.626 1.251-.348.695-1.181 1.216-1.876 1.216-.661 0-.939-.52-.591-1.216.347-.695 1.181-1.25 1.841-1.25Zm10.946-20.986c.486.034.66.312.555.938-.069.347-.243.73-.451 1.216-.07.139-.139.243-.209.382l-.208.417c-.139.313-.313.626-.487.973-.104.174-.243.382-.347.625-.139.244-.313.522-.452.834-.347.626-.729 1.39-1.146 2.19a96.044 96.044 0 0 1-1.356 2.64 69.227 69.227 0 0 1-1.424 2.78c-.973 1.876-1.981 3.648-2.815 4.968-.868 1.32-1.563 2.19-1.945 2.224 0 0-.209.07-.313-.139-.104-.243-.07-.764.347-1.91.07-.14.139-.314.209-.522.104-.208.208-.417.313-.695.208-.486.486-1.077.799-1.737.625-1.286 1.39-2.884 2.189-4.483a101.718 101.718 0 0 1 2.501-4.76c.07-.173.174-.347.278-.556l.313-.52c.209-.348.382-.661.556-.974.209-.313.382-.625.556-.868.139-.278.313-.556.452-.765 0 0 .347-.556.799-1.146.452-.556.973-1.112 1.286-1.112ZM14.714 13.512c-.671.18-1.084-.286-.928-1.047.156-.76.826-1.48 1.498-1.66.637-.17 1.04.26.885 1.022-.156.761-.818 1.514-1.455 1.685Zm-5.14 23.104c-.48.092-.72-.131-.78-.762-.023-.354.046-.768.121-1.292.031-.152.071-.27.103-.423l.093-.457c.053-.338.14-.685.218-1.065.056-.195.136-.432.174-.694.071-.271.167-.585.22-.923.174-.694.345-1.531.541-2.41.187-.914.39-1.904.626-2.902.193-1.023.42-2.056.656-3.054.455-2.064.97-4.037 1.433-5.528.497-1.5.944-2.519 1.304-2.652 0 0 .183-.12.338.054.163.208.265.72.159 1.936a4.04 4.04 0 0 0-.067.557 6.784 6.784 0 0 0-.122.752 54.887 54.887 0 0 1-.322 1.885c-.271 1.404-.596 3.146-.954 4.896a101.07 101.07 0 0 1-1.185 5.246c-.022.186-.078.38-.124.609l-.168.584c-.111.39-.198.737-.285 1.084-.12.356-.207.703-.312.983a7.419 7.419 0 0 1-.238.855s-.192.627-.476 1.314c-.292.654-.652 1.326-.954 1.407Z" fill="#DCA766"/><path d="M54.935 56.858h3.224l4.318 10.54h.17l4.319-10.54h3.224v14.545h-2.528V61.41h-.135l-4.02 9.95h-1.89l-4.019-9.97h-.135v10.013h-2.528V56.858Zm21.15 14.766c-.691 0-1.314-.124-1.868-.37a3.05 3.05 0 0 1-1.306-1.108c-.318-.487-.476-1.089-.476-1.804 0-.615.113-1.124.34-1.527.228-.402.538-.724.931-.966a4.695 4.695 0 0 1 1.328-.547c.497-.127 1.011-.22 1.541-.277.64-.066 1.158-.125 1.556-.177.397-.057.686-.142.866-.256.185-.118.277-.3.277-.547v-.042c0-.535-.159-.95-.476-1.243-.317-.294-.774-.44-1.37-.44-.63 0-1.13.137-1.499.411-.365.275-.61.6-.739.974l-2.4-.341c.19-.663.502-1.217.937-1.662.436-.45.968-.786 1.598-1.009a6.112 6.112 0 0 1 2.088-.34c.526 0 1.05.06 1.57.184.52.123.997.327 1.427.61.431.28.777.661 1.037 1.144.266.483.398 1.087.398 1.811v7.301h-2.471v-1.498h-.086a3.138 3.138 0 0 1-.66.852c-.28.26-.632.471-1.058.632-.422.156-.917.235-1.485.235Zm.668-1.89c.516 0 .963-.102 1.342-.305.379-.208.67-.483.874-.824.208-.34.312-.713.312-1.115v-1.285c-.08.066-.218.127-.412.184-.19.057-.402.107-.639.15-.237.042-.471.08-.703.113l-.604.085a4.488 4.488 0 0 0-1.03.256 1.71 1.71 0 0 0-.717.497c-.175.208-.263.478-.263.81 0 .473.173.83.519 1.072.346.242.786.362 1.32.362ZM87 65.011v6.392h-2.57V60.494h2.457v1.854h.128a3.118 3.118 0 0 1 1.2-1.456c.554-.36 1.238-.54 2.053-.54.752 0 1.408.161 1.967.483.563.322.999.788 1.307 1.4.312.61.466 1.351.461 2.222v6.946h-2.57v-6.548c0-.73-.19-1.3-.569-1.712-.374-.412-.892-.617-1.555-.617-.45 0-.85.099-1.2.298a2.068 2.068 0 0 0-.817.845c-.195.37-.292.817-.292 1.342Zm16.57 1.804v-6.32h2.571v10.908h-2.493v-1.939h-.113a3.29 3.29 0 0 1-1.215 1.499c-.559.388-1.248.582-2.067.582-.715 0-1.347-.158-1.896-.475-.545-.322-.97-.789-1.279-1.4-.307-.615-.461-1.359-.461-2.23v-6.946h2.57v6.549c0 .69.19 1.24.57 1.647.378.407.875.611 1.491.611.378 0 .745-.092 1.1-.277.356-.185.647-.46.874-.824.232-.37.348-.83.348-1.385Zm10.044 4.801c-1.093 0-2.038-.227-2.833-.681a4.617 4.617 0 0 1-1.826-1.947c-.426-.842-.639-1.834-.639-2.975 0-1.123.213-2.107.639-2.955.431-.852 1.033-1.515 1.804-1.989.772-.478 1.679-.717 2.72-.717a5.51 5.51 0 0 1 1.904.327 4.303 4.303 0 0 1 1.591.994c.464.45.828 1.023 1.094 1.719.265.691.397 1.515.397 2.471v.789h-8.941v-1.733h6.477a2.76 2.76 0 0 0-.32-1.314 2.321 2.321 0 0 0-.873-.916c-.37-.223-.801-.334-1.293-.334-.526 0-.987.128-1.385.384a2.635 2.635 0 0 0-.93.994 2.862 2.862 0 0 0-.334 1.342v1.513c0 .634.116 1.179.348 1.634.232.45.556.795.973 1.036.417.237.904.356 1.463.356.374 0 .713-.053 1.016-.157.303-.109.565-.267.788-.476a1.98 1.98 0 0 0 .504-.774l2.401.27a3.75 3.75 0 0 1-.867 1.662c-.421.469-.961.833-1.619 1.094-.658.255-1.411.383-2.259.383Zm9.597-14.758v14.545h-2.571V56.858h2.571Zm11.952 14.758c-.995 0-1.849-.18-2.564-.54-.715-.36-1.267-.845-1.655-1.455-.384-.616-.575-1.31-.575-2.081 0-.583.118-1.099.355-1.549.241-.45.573-.866.994-1.25.426-.383.919-.764 1.477-1.143l2.579-1.754c.378-.247.665-.507.859-.782.199-.274.298-.596.298-.965 0-.313-.132-.609-.398-.888-.26-.28-.62-.42-1.079-.42-.308 0-.58.074-.817.22a1.505 1.505 0 0 0-.738 1.3c0 .318.087.64.262.967.18.326.412.665.696 1.015.289.35.597.722.924 1.115l6.825 7.997h-2.784l-5.668-6.491a97.603 97.603 0 0 1-1.221-1.456 7.697 7.697 0 0 1-.959-1.492 3.908 3.908 0 0 1-.37-1.69c0-.687.159-1.3.476-1.84.318-.544.76-.972 1.328-1.285.573-.312 1.243-.469 2.01-.469.767 0 1.426.152 1.975.455.549.303.973.705 1.271 1.207.298.502.448 1.049.448 1.64 0 .687-.171 1.303-.512 1.848-.341.54-.814 1.03-1.42 1.47l-2.941 2.152c-.483.35-.828.705-1.037 1.065-.208.355-.312.658-.312.909 0 .384.097.732.291 1.044.194.313.467.564.817.753.355.185.769.277 1.243.277.521 0 1.034-.116 1.541-.348a4.615 4.615 0 0 0 1.385-1.009c.417-.435.748-.956.994-1.562.246-.61.37-1.288.37-2.031h2.208c0 .918-.101 1.718-.305 2.4-.204.677-.466 1.25-.788 1.719a5.007 5.007 0 0 1-1.023 1.115c-.114.08-.223.161-.327.241-.104.081-.213.161-.326.242a4.805 4.805 0 0 1-1.797 1.023 6.584 6.584 0 0 1-2.01.326Zm13.989-.213V56.858h2.635v12.337h6.407v2.208h-9.042Zm11.215 0V60.494h2.571v10.91h-2.571Zm1.293-12.457c-.408 0-.758-.135-1.052-.405a1.306 1.306 0 0 1-.44-.987c0-.388.147-.717.44-.987a1.487 1.487 0 0 1 1.052-.412c.411 0 .762.137 1.051.412.293.27.44.599.44.987 0 .383-.147.712-.44.987-.289.27-.64.405-1.051.405Zm6.493-2.088v14.545h-2.571V56.858h2.571Zm2.644 14.545V60.494h2.571v10.91h-2.571Zm1.292-12.457a1.5 1.5 0 0 1-1.051-.405 1.306 1.306 0 0 1-.44-.987c0-.388.147-.717.44-.987a1.486 1.486 0 0 1 1.051-.412c.412 0 .763.137 1.051.412.294.27.441.599.441.987 0 .383-.147.712-.441.987-.288.27-.639.405-1.051.405Zm7.062 12.678c-.692 0-1.314-.124-1.868-.37a3.045 3.045 0 0 1-1.307-1.108c-.317-.487-.476-1.089-.476-1.804 0-.615.114-1.124.341-1.527.227-.402.537-.724.93-.966a4.7 4.7 0 0 1 1.328-.547c.498-.127 1.011-.22 1.542-.277a60.855 60.855 0 0 0 1.555-.177c.398-.057.687-.142.867-.256.184-.118.277-.3.277-.547v-.042c0-.535-.159-.95-.476-1.243-.318-.294-.774-.44-1.371-.44-.63 0-1.129.137-1.499.411-.364.275-.61.6-.738.974l-2.401-.341c.19-.663.502-1.217.938-1.662.435-.45.968-.786 1.598-1.009a6.106 6.106 0 0 1 2.088-.34c.525 0 1.049.06 1.569.184.521.123.997.327 1.428.61.431.28.776.661 1.037 1.144.265.483.398 1.087.398 1.811v7.301h-2.472v-1.498h-.085a3.136 3.136 0 0 1-.661.852c-.279.26-.632.471-1.058.632-.421.156-.916.235-1.484.235Zm.667-1.89c.516 0 .964-.102 1.343-.305.378-.208.67-.483.873-.824.208-.34.313-.713.313-1.115v-1.285c-.081.066-.218.127-.412.184-.19.057-.403.107-.639.15-.237.042-.472.08-.704.113l-.603.085a4.484 4.484 0 0 0-1.03.256 1.708 1.708 0 0 0-.717.497c-.176.208-.263.478-.263.81 0 .473.173.83.518 1.072.346.242.786.362 1.321.362Zm10.249-4.723v6.392h-2.571V60.494h2.457v1.854h.128a3.119 3.119 0 0 1 1.2-1.456c.554-.36 1.238-.54 2.053-.54.753 0 1.408.161 1.967.483.564.322.999.788 1.307 1.4.313.61.466 1.351.462 2.222v6.946H194.5v-6.548c0-.73-.19-1.3-.569-1.712-.374-.412-.892-.617-1.555-.617-.45 0-.85.099-1.2.298a2.067 2.067 0 0 0-.817.845c-.194.37-.291.817-.291 1.342Zm12.756 6.613c-.692 0-1.314-.124-1.868-.37a3.045 3.045 0 0 1-1.307-1.108c-.317-.487-.476-1.089-.476-1.804 0-.615.114-1.124.341-1.527.227-.402.537-.724.93-.966a4.7 4.7 0 0 1 1.328-.547c.498-.127 1.011-.22 1.542-.277a60.855 60.855 0 0 0 1.555-.177c.398-.057.687-.142.866-.256.185-.118.277-.3.277-.547v-.042c0-.535-.158-.95-.475-1.243-.318-.294-.775-.44-1.371-.44-.63 0-1.129.137-1.499.411-.364.275-.611.6-.738.974l-2.401-.341c.189-.663.502-1.217.938-1.662.435-.45.968-.786 1.598-1.009a6.106 6.106 0 0 1 2.088-.34c.525 0 1.048.06 1.569.184.521.123.997.327 1.428.61.431.28.776.661 1.037 1.144.265.483.397 1.087.397 1.811v7.301h-2.471v-1.498h-.085a3.156 3.156 0 0 1-.661.852c-.279.26-.632.471-1.058.632-.422.156-.916.235-1.484.235Zm.667-1.89c.516 0 .964-.102 1.342-.305a2.26 2.26 0 0 0 .874-.824c.208-.34.313-.713.313-1.115v-1.285c-.081.066-.218.127-.412.184a5.89 5.89 0 0 1-.64.15c-.236.042-.471.08-.703.113l-.603.085a4.484 4.484 0 0 0-1.03.256 1.718 1.718 0 0 0-.718.497c-.175.208-.262.478-.262.81 0 .473.172.83.518 1.072.346.242.786.362 1.321.362Z" fill="#6A6A6A"/></svg>