<svg width="48" height="48" fill="none" xmlns="http://www.w3.org/2000/svg"><path d="M22.635 47.403c-.582-.115-1.048-.115-1.63-.23-.583-.115-.933-.46-.816-.92 0-.346.233-.691.699-.691h.815c3.262.345 6.408 0 9.437-1.036 4.194-1.496 7.689-3.913 10.485-7.48 2.097-2.648 3.495-5.64 4.077-8.978 1.282-7.02-.466-13.235-5.126-18.53-3.378-3.682-7.689-6.1-12.815-6.905-5.475-.92-10.601.115-15.378 2.993-1.398.805-1.398.805-2.447-.346-.582-.69-1.165-1.266-1.864-2.071-.466 2.992-.815 5.984-1.165 8.977 2.796-.346 5.592-.806 8.505-1.151-.816-.92-1.514-1.727-2.33-2.417-.699-.806-.699-1.151.233-1.726 2.68-1.612 5.476-2.648 8.621-2.878 4.427-.46 8.505.46 12.35 2.532 3.61 2.072 6.29 4.834 8.154 8.517 1.631 3.222 2.33 6.56 2.097 10.128-.233 4.373-1.747 8.286-4.543 11.624-3.146 3.798-7.223 6.1-12.116 7.02-1.864.346-3.728.46-5.592.23-.117 0-.35 0-.466-.114-.35-.115-.583-.346-.466-.806 0-.345.233-.69.699-.69h.699c7.922.575 15.261-3.798 18.523-10.82C44.654 24.27 42.906 15.409 36.732 10c-4.194-3.683-9.204-5.294-14.796-4.719-2.563.23-4.893 1.036-7.107 2.302-.116 0-.116.115-.232.115l.349.345c.816.921 1.631 1.727 2.446 2.648.233.23.467.575.233.92-.116.23-.465.46-.698.46-3.612.576-7.107 1.036-10.719 1.497-.699.115-1.165-.345-1.048-1.036.466-3.798 1.048-7.596 1.514-11.279 0-.345.233-.69.583-.806.35-.115.699 0 .932.346.932 1.036 1.864 1.956 2.796 2.992.117.115.233.23.233.345 1.398-.69 2.796-1.38 4.194-1.956C19.024.792 22.752.33 26.48.677c5.126.575 9.67 2.532 13.397 5.984 3.146 2.878 5.36 6.445 6.64 10.474 1.05 3.452 1.282 7.02.583 10.588-.932 5.064-3.262 9.437-7.106 13.005-3.379 3.223-7.456 5.18-12.116 5.985-.932.115-1.864.23-2.68.345-.699.345-1.63.345-2.563.345Z" fill="#998379"/><path d="M23.334 17.135v-6.56c0-.23 0-.346.117-.576.116-.345.349-.575.815-.575.35 0 .699.23.699.69V23.35c0 .346.116.576.35.806l6.99 6.906.35.345c.349.345.349.806 0 1.15-.35.346-.7.346-1.166 0l-.233-.23-7.34-7.25c-.349-.345-.465-.69-.465-1.151-.117-2.417-.117-4.604-.117-6.79ZM9.82 35.779c-.116.23-.35.46-.582.575-.35.23-.7.115-.932-.23-.35-.46-.816-1.036-1.165-1.496-.233-.345-.466-.69-.7-1.15-.232-.461-.116-.806.234-1.037.349-.23.815-.115 1.048.23.583.806 1.165 1.727 1.748 2.532.233.115.233.346.35.576ZM.617 21.968c.116-.92.35-1.956.466-2.877.116-.576.466-.806.932-.69.466.114.699.46.582 1.035-.116.92-.233 1.842-.35 2.647-.116.576-.465.921-.931.806-.466 0-.7-.345-.7-.92ZM.5 25.536c0-.576.35-.92.816-.92.466 0 .815.23.815.805l.35 2.762c.116.576-.233 1.036-.7 1.036-.465 0-.815-.23-.931-.806a201.573 201.573 0 0 0-.35-2.877ZM14.946 43.95c.117 0 .233 0 .35.116l2.796 1.036c.466.23.699.575.582 1.035-.116.46-.582.576-1.048.46a81.539 81.539 0 0 0-2.913-1.035c-.466-.115-.582-.575-.582-.92.233-.461.466-.576.815-.691ZM6.442 14.488c.699 0 1.048.46.932.92-.35 1.036-.816 1.957-1.165 2.993-.117.345-.583.575-.932.46-.35-.115-.583-.576-.466-.92.35-1.037.815-2.072 1.281-3.108-.116-.115.233-.23.35-.345ZM3.995 27.492c0-.46.233-.805.583-.92.35-.115.815 0 .932.46l1.048 3.108c.117.345-.116.805-.582.92-.35.115-.816-.115-.932-.46l-.7-2.072-.349-1.035ZM12.966 43.26c0 .69-.7 1.036-1.165.806a22.728 22.728 0 0 1-2.68-1.957c-.35-.23-.35-.69-.116-1.036.233-.345.699-.345 1.048-.115.932.576 1.748 1.266 2.68 1.842.116.115.233.345.233.46ZM4.461 34.168c0 .46-.233.69-.582.805-.35.116-.7 0-.816-.23-.466-1.036-.932-2.071-1.398-3.222-.116-.346.117-.69.466-.806.35-.115.7 0 .932.345.117.115.117.346.233.576.35.69.583 1.496.932 2.186.233.116.233.23.233.346ZM3.646 23.35c.116-.806.116-1.382.233-2.072.116-.576.466-.921.932-.806.466.115.699.46.699 1.036-.117.92-.117 1.841-.233 2.762 0 .575-.35.92-.816.92-.466 0-.699-.345-.699-.92-.116-.46-.116-.69-.116-.92ZM14.247 39.807c0 .691-.7 1.151-1.165.806-.932-.69-1.748-1.38-2.563-2.071-.35-.23-.233-.691 0-1.036.35-.346.699-.346 1.048-.115.816.69 1.631 1.38 2.563 2.071 0 .115.117.345.117.345ZM5.277 36.124c.233.23.466.23.699.46.582.806 1.281 1.497 1.864 2.303.35.46.233.805-.117 1.15-.35.346-.815.23-1.165-.114-.699-.806-1.281-1.612-1.864-2.417-.116-.23-.116-.576-.116-.806.233-.345.466-.46.699-.576ZM18.907 43.49c-.35-.115-.815-.23-1.281-.46-.583-.23-1.165-.46-1.748-.806-.466-.23-.582-.69-.466-1.036.233-.345.583-.575 1.049-.345.932.345 1.864.806 2.796 1.151.466.23.582.46.466.92 0 .461-.35.576-.816.576ZM3.529 13.221c.583 0 1.048.46.816.92L3.296 16.56c-.233.345-.583.46-.932.345-.35-.115-.583-.46-.466-.806.35-.805.699-1.726 1.165-2.531.116-.23.466-.23.466-.346Z" fill="#998379"/></svg>