<svg width="88" height="58" fill="none" xmlns="http://www.w3.org/2000/svg"><path fill-rule="evenodd" clip-rule="evenodd" d="M42.15 12.58c-.048.048-.434.12-.858.161-.424.04-.826.134-.893.206-.067.073.11.077.393.009.338-.081.475-.059.398.065-.151.245-.104.24.813-.083.685-.242.746-.242.546 0-.277.333.017.373.572.076.292-.156.415-.13.605.13.2.274.283.287.528.084.362-.3.188-.625-.272-.505-.188.05-.343.036-.343-.03 0-.138-1.36-.241-1.49-.113Zm2.621.3c.102.304.644.614.8.458.073-.073-.026-.251-.218-.397-.428-.323-.678-.35-.582-.062Zm.686-.14c0 .133 1.115.831 1.328.832.081 0 .088-.095.016-.211-.092-.15-.028-.171.217-.074.763.305.888.312.54.028-.194-.157-.48-.293-.636-.3a3.534 3.534 0 0 1-1.147-.26c-.175-.07-.318-.078-.318-.016Zm-6.907.595c-.948.338-2.362 1.038-2.362 1.17 0 .213.015.21 1.011-.23 1.452-.641 2.436-1.325 1.351-.94Zm.036.526c-.864.43-1.27.985-.717.98.286-.001 2.07-1.016 2.224-1.264.208-.336-.547-.194-1.507.284Zm1.765-.048c-.856.452-1.225 1.212-.587 1.211.727-.001 2.086-1.181 1.749-1.518-.178-.178-.304-.145-1.162.307Zm1.769.136c-.587.46-.594 1.137-.015 1.22.539.077 1.385-.642 1.317-1.118-.076-.533-.693-.581-1.302-.102Zm2.101.023c-.12.12-.218.39-.218.6 0 .814 1.085 1.142 1.46.44.404-.752-.648-1.633-1.242-1.04Zm1.865-.025c-.214.347.3 1.224.85 1.452 1.072.443 1.101-.436.042-1.267-.54-.426-.72-.463-.892-.185Zm1.552.14c0 .252 1.273 1.44 1.648 1.538.545.143.616-.216.143-.721-.658-.704-1.79-1.22-1.79-.817Zm1.909.492c1.075.977 2.248 1.505 1.826.823-.191-.308-1.605-1.224-2.1-1.359-.393-.107-.357-.036.273.536Zm.454-.567c0 .163 2.54 1.805 2.639 1.705.049-.049-.054-.212-.23-.362-.43-.37-2.41-1.472-2.41-1.343Zm-15.91 1.366c-.994.57-2.12 1.644-1.725 1.644.556 0 2.95-1.838 2.71-2.08-.046-.045-.49.15-.986.436Zm1.628-.096c-.728.317-1.894 1.343-1.894 1.668 0 .562.913.25 1.818-.621 1.21-1.165 1.238-1.552.076-1.047Zm1.823.18c-.62.27-1.536 1.265-1.536 1.67 0 .722 1.334.39 2.103-.522.447-.531.536-1.231.169-1.336-.1-.029-.431.056-.736.188Zm2.731.09c-1.009.296-1.794 1.4-1.364 1.918.381.458 1.243.34 1.836-.253.873-.871.562-1.967-.472-1.664Zm5.22.598c-.401.401-.26 1.356.261 1.766.856.673 1.702.403 1.702-.543 0-1.055-1.312-1.872-1.963-1.223Zm-2.442.29c-.07.266-.247.402-.53.405-.39.006-.398.023-.093.2.239.138.302.318.223.634-.1.4-.078.42.242.22.284-.177.416-.169.672.041.291.239.31.223.206-.179-.078-.302-.017-.514.195-.675.285-.215.279-.235-.072-.24-.213-.003-.46-.181-.56-.406l-.178-.4-.105.4Zm5.132.295c0 1.169 1.701 2.293 2.15 1.421.22-.427.093-.75-.572-1.452-.372-.393-.729-.59-1.068-.59-.46 0-.51.062-.51.621Zm2.455-.441c-.32.518 1.216 2.361 1.97 2.361.82 0-.05-1.7-1.166-2.275-.61-.315-.659-.32-.804-.086Zm1.907.262c0 .356 1.726 2.1 2.079 2.1.525 0 .291-.556-.616-1.462-.892-.89-1.463-1.14-1.463-.638Zm1.273-.125c0 .242 2.161 2.304 2.285 2.18.063-.062-.279-.534-.76-1.047-.87-.928-1.525-1.416-1.525-1.133Zm-22.953 1.342c-.465.26-1.766 1.952-1.766 2.297 0 .363 1.305-.865 1.85-1.742.416-.67.393-.822-.085-.555Zm.51.74c-.74.738-1.19 1.65-.94 1.9.41.41 2.157-1.25 2.328-2.214.119-.667-.56-.514-1.388.314Zm2.077.109c-.845.844-1.096 1.619-.635 1.956.63.459 1.923-.39 2.291-1.503.264-.797.117-1.146-.481-1.146-.316 0-.72.239-1.175.693Zm3.372-.229c-.748.384-1.173.973-1.178 1.633-.008 1.168 1.11 1.365 2.105.372.735-.735.868-1.778.266-2.1-.458-.244-.546-.237-1.193.095Zm2.971.597c-1.373 1.225-.141 2.953 1.555 2.181.54-.246 1.067-1.257.9-1.728-.392-1.097-1.503-1.303-2.455-.453Zm4.299-.125c-1.33.726-.978 2.49.557 2.797.814.162 1.535-.47 1.527-1.341-.006-.732-.238-1.132-.845-1.455-.487-.258-.767-.259-1.24-.001Zm6.7.608c-.198.513.14 1.595.66 2.114.69.688 1.579.72 1.744.063.168-.668-.058-1.34-.648-1.929-.582-.581-1.575-.721-1.757-.248Zm5.023.096c0 .695 1.3 2.716 1.748 2.716.577 0 .092-1.449-.803-2.405-.47-.502-.945-.659-.945-.311Zm1.458.274c-.002.105.28.636.628 1.18.347.545.631.909.632.809 0-.247-1.255-2.228-1.26-1.989Zm-8.789.385c-.253.253-.106.605.253.605.206 0 .324-.081.262-.181-.062-.1-.005-.183.126-.184.173-.002.163-.051-.035-.18-.325-.209-.444-.221-.606-.06ZM28.568 21.54c-.822 1.153-1.215 2.743-.678 2.743.496 0 1.498-1.647 1.606-2.641.08-.737-.434-.794-.928-.102Zm1.825.296c-.62.705-.807 1.231-.717 2.017.044.386.17.536.486.581.914.13 2.12-1.856 1.694-2.788-.286-.627-.804-.56-1.463.19Zm6.954.167c-1.698.738-1.484 3.188.279 3.188.805 0 1.833-1 1.833-1.783 0-.796-.162-1.102-.74-1.4-.616-.319-.65-.319-1.372-.005Zm-3.704.846c0 .688.018.708.636.708s.636-.02.636-.708-.018-.708-.636-.708-.636.02-.636.708Zm8.068-.573c-.582.245-1.161 1.084-1.161 1.683 0 .348.184.718.53 1.064.697.695 1.581.718 2.364.06 1.399-1.175-.047-3.518-1.733-2.807Zm4.169.461c-.8.56-.846 2.015-.085 2.703.19.17.637.358.994.416.56.09.73.025 1.227-.47.5-.5.562-.663.469-1.248-.206-1.293-1.65-2.069-2.605-1.4Zm4.366.093c-.596.24-.871 1.271-.546 2.05.414.989 1.543 1.536 2.227 1.08.962-.642.685-2.44-.466-3.035-.6-.31-.668-.315-1.215-.095Zm3.629.144c-1.05.666-.229 3.306 1.029 3.306.66 0 .913-.316.913-1.135 0-1.395-1.146-2.677-1.942-2.171Zm2.702.356c-.437.86.454 3.04 1.243 3.04.382 0 .46-.096.511-.635.154-1.62-1.205-3.484-1.754-2.405Zm2.032.52c.135.983.832 2.515 1.116 2.45.451-.1-.448-3.079-.982-3.253-.207-.068-.233.087-.134.803Zm-32.13 1.718c-.163.407-.348 1.235-.412 1.84-.093.898-.068 1.084.14 1.017.36-.115.875-1.709.885-2.735.01-1.058-.22-1.104-.613-.122Zm1.848-.363c-.525.305-.864 1.178-.864 2.223 0 2.218 1.48 1.585 1.757-.75.079-.669.028-.94-.237-1.256-.264-.313-.409-.361-.656-.217Zm2.167.707c-.831.987-.846 2.483-.03 3.017 1.227.803 2.57-1.701 1.659-3.09-.416-.635-1.057-.605-1.63.073Zm3.641.189c-1.055.828-1.017 2.62.066 3.18 1.37.707 2.915-1.24 2.139-2.696-.483-.904-1.411-1.108-2.205-.484Zm4.492.205c-.944.457-1.262 1.934-.598 2.776.534.678 1.156.886 1.908.639.836-.276 1.34-.97 1.34-1.846 0-1.346-1.4-2.175-2.65-1.569Zm4.716.477c-.936.757-1.055 1.922-.284 2.783.412.461.658.574 1.29.59.663.018.858-.067 1.307-.57 1.113-1.243.37-3.13-1.23-3.12-.383.001-.87.144-1.083.317Zm5.06.135c-1.338.577-1.397 2.633-.095 3.325.724.385 1.44.258 1.95-.347.656-.78.644-1.791-.03-2.51-.635-.678-1.076-.791-1.824-.468Zm7.493.716c-.387.59-.393 1.858-.011 2.594.418.809 1.249.836 1.654.054.883-1.705-.646-4.168-1.643-2.648Zm2.822-.166c-.362.436-.317 2.47.068 3.057.171.26.393.474.493.474.507 0 .734-2.416.307-3.253-.286-.56-.56-.648-.868-.278Zm-6.409 1.258c-.376.275-.198.9.267.934.379.029.533-.502.256-.88-.171-.234-.263-.244-.523-.054Zm-25.742.798c-.44.82-.037 3.472.528 3.472.518 0 .713-1.924.313-3.072-.26-.745-.576-.895-.841-.4Zm1.87.694c-.532 1.269.064 3.032.987 2.925.65-.076.98-.748.892-1.816-.146-1.756-1.32-2.448-1.88-1.109Zm3.626-.293c-1.068.394-1.052 2.73.024 3.476.427.296 1.172.132 1.543-.34 1.028-1.304-.148-3.66-1.567-3.137Zm4.03.42c-1.725.75-1.056 3.542.85 3.554.524.003.767-.116 1.137-.554.826-.98.46-2.504-.717-2.996-.725-.302-.587-.302-1.27-.004Zm5.472.926c-.091.366-.228.455-.7.458l-.588.004.43.33c.364.28.409.425.295.949-.131.604-.126.611.22.301.438-.39.846-.405 1.149-.04.317.382.405.228.19-.336-.153-.402-.112-.524.277-.83l.456-.358-.6-.057c-.462-.045-.613-.152-.658-.466-.077-.544-.329-.52-.47.045Zm4.489-.326c-.222.043-.61.323-.863.624-1.262 1.498.264 3.723 1.96 2.857.932-.476 1.336-1.794.836-2.728-.16-.298-1.285-.95-1.48-.856-.027.014-.231.06-.453.103Zm4.168.519c-1.42.993-1.001 3.347.597 3.347 1.528 0 2.277-2.303 1.06-3.26-.566-.443-1.107-.472-1.657-.087Zm3.952.268c-.87.868-.995 2.473-.24 3.065.632.498.723.483 1.447-.24.534-.534.618-.738.618-1.503 0-1.517-.944-2.201-1.825-1.322Zm3.305.052c-1 1.203-.946 3.553.077 3.364.793-.147 1.538-2.8.951-3.387-.288-.288-.779-.277-1.028.023Zm2.032.44c-.406.964-.563 3.026-.222 2.915.42-.137.724-.983.836-2.327.123-1.457-.142-1.71-.614-.588Zm-33.138 1.715c0 .702.515 2.247.904 2.714l.356.426.006-.463c.008-.635-.687-2.64-1.006-2.905-.214-.177-.26-.136-.26.228Zm1.368.312c-.222.699.53 2.574 1.17 2.915.872.467.86-1.521-.017-2.75-.42-.59-.992-.672-1.153-.165Zm2.523.287c-.426.65-.195 1.64.558 2.392.668.668 1.018.745 1.445.318.39-.39.358-1.22-.079-2.075-.582-1.141-1.412-1.415-1.924-.635Zm3.392.388c-.207.263-.377.592-.377.732 0 .554.535 1.48 1.078 1.866 1.599 1.137 2.73-1.116 1.286-2.56-.68-.679-1.47-.694-1.987-.038Zm4.283.26c-.367.29-.48.538-.48 1.066 0 1.796 2.405 2.599 3.199 1.067.82-1.584-1.3-3.246-2.72-2.132Zm4.596.518c-1.086 1.084-.395 2.737 1.143 2.737.556 0 .84-.124 1.27-.553.478-.478.54-.644.447-1.225-.23-1.445-1.834-1.983-2.86-.959Zm5.172-.087c-1.224.53-1.591 2.095-.663 2.825.646.507 1.42.372 2.094-.367 1.21-1.326.152-3.142-1.431-2.458Zm3.787.385c-.865.605-1.184 1.84-.665 2.58.434.619 1.103.514 1.92-.301.74-.74.912-1.475.517-2.212-.233-.435-1.193-.472-1.772-.067Zm3.26.53c-.882 1.002-.975 2.44-.168 2.598.764.15 2.086-1.84 1.849-2.784-.174-.694-.987-.604-1.68.185Zm2.924-.224c-.439.466-1.124 1.891-1.13 2.349-.012.919.994.283 1.63-1.03.676-1.393.358-2.232-.5-1.319Zm-29.306 1.79c0 .774 1.612 2.968 1.94 2.64.205-.204-.686-1.88-1.33-2.504l-.61-.59v.453Zm4.59.282c-.348.14-.27 1.17.14 1.84.372.61 1.334 1.158 1.752.998.724-.278.14-2.176-.823-2.673-.576-.298-.695-.316-1.07-.165Zm3.362.43c-.213.13-.318.421-.318.886 0 1.584 2.208 2.511 2.69 1.13.195-.56-.062-1.395-.556-1.804-.393-.326-1.432-.447-1.816-.213Zm3.862.538c-.702.702-.377 1.858.642 2.283 1.554.649 2.73-1.136 1.503-2.278-.53-.492-1.655-.494-2.145-.005Zm4.775-.053c-.223.043-.57.287-.773.544-.753.956-.227 2.232.92 2.232 1.054 0 2.018-1.486 1.482-2.287-.159-.238-.866-.627-1.076-.592-.081.013-.33.06-.553.102Zm6.61 1.016c-.942.888-1.135 2.123-.33 2.123.9 0 2.43-1.715 2.159-2.42-.2-.522-1.117-.373-1.829.297Zm3.215-.247c-.548.334-1.514 1.71-1.514 2.16 0 .38.632.22 1.299-.328.689-.568 1.342-1.702 1.154-2.005-.155-.25-.281-.228-.939.173Zm1.464.477c-.866.93-1.471 1.893-1.188 1.893.195 0 1.485-1.373 1.937-2.063.563-.858.115-.756-.749.17Zm-7.846.054c-.224.138-.063.456.262.517.297.056.452-.444.17-.552a.555.555 0 0 0-.432.035ZM31.28 41.706c0 .284 1.179 1.509 1.8 1.872.844.491.692.059-.372-1.065-.87-.92-1.428-1.234-1.428-.806Zm1.818.2c0 .601 1.53 2.16 2.12 2.16.485 0 .225-.738-.544-1.539-.736-.767-1.576-1.098-1.576-.621Zm2.582.21c-.294.354.213 1.343.906 1.765.91.554 1.237.487 1.237-.25 0-1.046-1.596-2.175-2.143-1.516Zm2.992.257c-.218.217-.128 1.06.156 1.465.339.482 1.429.728 1.814.408.381-.315.337-.955-.106-1.516-.287-.365-.538-.478-1.06-.478-.376 0-.738.054-.804.12Zm6.946.514c-.626.34-1.022 1.254-.706 1.634.492.591 1.804.092 2.187-.833.215-.517.204-.604-.1-.826-.425-.31-.775-.304-1.38.025Zm2.926.314c-.795.535-1.26 1.311-.962 1.608.326.326 1.13.036 1.826-.658 1.066-1.065.399-1.8-.864-.95Zm2.142.403c-.699.532-1.049.965-1.049 1.294 0 .24.77.005 1.497-.456.729-.462 1.23-1.016 1.23-1.362 0-.319-.97-.016-1.678.524Zm2.213-.108c-.879.565-1.745 1.42-1.592 1.572.146.146 2.31-1.351 2.52-1.744.256-.479.017-.434-.928.172Zm-17.917 1.27c.361.399 2.1 1.372 2.227 1.246.107-.107-2.077-1.582-2.343-1.582-.104 0-.052.151.116.336Zm1.387-.005c0 .427 1.891 1.624 2.081 1.317.14-.227-1.34-1.467-1.75-1.467-.182 0-.33.068-.33.15Zm2 .288c0 .14.251.467.559.726 1.036.87 1.75.399.812-.537-.487-.486-1.371-.608-1.371-.19Zm2.256.172c-.294.767 1.019 1.579 1.497.926.205-.28.204-.394-.003-.708-.305-.46-1.342-.612-1.494-.218Zm2.355.4c-.27.41-.274.495-.036.733.481.48 1.78-.298 1.54-.924-.18-.466-1.155-.342-1.505.19Zm2.84-.25c-.495.185-1.272.848-1.272 1.087 0 .496 1.941-.298 2.13-.872.098-.3-.336-.408-.857-.214Zm1.376.47c-1.154.637-1.341 1.048-.312.685.855-.3 1.663-.8 1.663-1.028 0-.277-.423-.17-1.35.343Zm1.367.148c-.74.342-1.3.667-1.246.722.11.109 2.307-.764 2.58-1.024.407-.387-.083-.276-1.334.302Zm-10.013.619c.15.097.355.176.455.176.1 0 .059-.08-.091-.176-.15-.097-.355-.176-.455-.176-.1 0-.059.08.091.176Zm.849.076c-.066.17.088.277.482.337.77.118.814.034.158-.305-.453-.234-.56-.24-.64-.032Zm1.316.177c.25.3.925.506.925.28 0-.183-.603-.533-.919-.533-.164 0-.165.06-.006.253Zm1.152.155a.357.357 0 0 0 .318.227.358.358 0 0 0 .319-.227c.045-.135-.084-.227-.319-.227-.234 0-.363.092-.318.227Zm1.227.002-.454.206.572.065c.314.036.846-.02 1.181-.126l.61-.19-.591.085c-.325.047-.59.006-.59-.092 0-.22-.15-.21-.728.052Z" fill="#CC9475"/><path d="M40.288 11.353c.714 0 .72-1.112 0-1.112-.713 0-.719 1.112 0 1.112ZM53.99 14.204c.713 0 .72-1.112 0-1.112-.714 0-.72 1.112 0 1.112ZM27.157 43.28c.714 0 .72-1.111 0-1.111-.713 0-.719 1.111 0 1.111ZM27.157 18.765c.714 0 .72-1.112 0-1.112-.713 0-.719 1.112 0 1.112ZM62.554 33.018c.713 0 .719-1.112 0-1.112-.714 0-.72 1.112 0 1.112ZM47.71 48.412c.713 0 .72-1.112 0-1.112-.714 0-.72 1.112 0 1.112ZM48.852 10.213c.713 0 .72-1.112 0-1.112-.714 0-.72 1.112 0 1.112ZM52.277 50.122c.714 0 .72-1.112 0-1.112-.714 0-.72 1.112 0 1.112ZM23.732 31.308c.714 0 .72-1.112 0-1.112-.713 0-.72 1.112 0 1.112ZM26.015 23.326c.714 0 .72-1.112 0-1.112-.713 0-.719 1.112 0 1.112ZM60.84 41.57c.714 0 .72-1.112 0-1.112-.713 0-.719 1.112 0 1.112ZM60.27 20.475c.714 0 .72-1.112 0-1.112-.714 0-.72 1.112 0 1.112ZM36.292 11.923c.713 0 .72-1.112 0-1.112-.714 0-.72 1.112 0 1.112ZM32.867 47.271c.713 0 .719-1.111 0-1.111-.714 0-.72 1.111 0 1.111ZM63.124 26.747c.714 0 .72-1.112 0-1.112-.713 0-.72 1.111 0 1.111ZM36.292 50.692c.713 0 .72-1.112 0-1.112-.714 0-.72 1.112 0 1.112ZM53.419 46.701c.714 0 .72-1.111 0-1.111-.714 0-.72 1.111 0 1.111ZM43.99 9.072c1.079 0 1.087-1.682 0-1.682-1.08 0-1.09 1.682 0 1.682ZM42.277 50.692c1.08 0 1.088-1.682 0-1.682-1.08 0-1.089 1.682 0 1.682ZM62.83 23.326c1.079 0 1.087-1.682 0-1.682-1.08 0-1.09 1.682 0 1.682ZM64.542 36.439c1.08 0 1.088-1.682 0-1.682-1.08 0-1.089 1.682 0 1.682ZM22.866 27.887c1.08 0 1.088-1.682 0-1.682-1.08 0-1.088 1.682 0 1.682ZM25.72 39.86c1.08 0 1.088-1.682 0-1.682-1.08 0-1.088 1.682 0 1.682ZM28.004 15.344c1.08 0 1.088-1.682 0-1.682-1.08 0-1.088 1.682 0 1.682ZM57.691 44.99c1.08 0 1.088-1.681 0-1.681-1.08 0-1.088 1.682 0 1.682Z" fill="#CC9475"/></svg>